<svg class="fan-speed-icon" xmlns="http://www.w3.org/2000/svg" viewBox="0 0 16 16" width="512" height="512">
    <path d="m8 0c-4.41113 0-8 3.58887-8 8s3.58887 8 8 8 8-3.58887 8-8-3.58887-8-8-8zm0 15c-3.85986 0-7-3.14014-7-7s3.14014-7 7-7 7 3.14014 7 7-3.14014 7-7 7z"/>
    <path id="hollow" visibility="hidden" transform="translate(2 2)"
          d="m9 3c-1.04364 0-1.9624.536926-2.5 1.34772v-3.84772c0-.276367-.223633-.5-.5-.5-1.6543 0-3 1.3457-3 3 0 1.04364.536926 1.9624 1.34772 2.5h-3.84772c-.276367 0-.5.223633-.5.5 0 1.6543 1.3457 3 3 3 1.04364 0 1.9624-.536926 2.5-1.34772v3.84772c0 .276367.223633.5.5.5 1.6543 0 3-1.3457 3-3 0-1.04364-.536926-1.9624-1.34772-2.5h3.84772c.276367 0 .5-.223633.5-.5 0-1.6543-1.3457-3-3-3zm-6 5c-.930176 0-1.71436-.638184-1.93652-1.5h3.87305c-.222168.861816-1.00635 1.5-1.93652 1.5zm1-5c0-.930176.638184-1.71436 1.5-1.93652v3.87305c-.861816-.222168-1.5-1.00635-1.5-1.93652zm2 3.5c-.276123 0-.5-.223877-.5-.5 0-.276184.223877-.5.5-.5s.5.223816.5.5c0 .276123-.223877.5-.5.5zm2 2.5c0 .930176-.638184 1.71436-1.5 1.93652v-3.87305c.861816.222168 1.5 1.00635 1.5 1.93652zm-.936523-3.5c.222168-.861816 1.00635-1.5 1.93652-1.5.930176 0 1.71436.638184 1.93652 1.5h-3.87305z"/>
    <path id="filled" visibility="hidden" transform="translate(2,2)"
          d="M 9,3 C 7.95636,3 7.0376,3.536926 6.5,4.34772 V 0.5 C 6.5,0.223633 6.276367,0 6,0 4.3457,0 3,1.3457 3,3 3,4.04364 3.536926,4.9624 4.34772,5.5 H 0.5 C 0.223633,5.5 0,5.723633 0,6 0,7.6543 1.3457,9 3,9 4.04364,9 4.9624,8.463074 5.5,7.65228 V 11.5 C 5.5,11.776367 5.723633,12 6,12 7.6543,12 9,10.6543 9,9 9,7.95636 8.463074,7.0376 7.65228,6.5 H 11.5 C 11.776367,6.5 12,6.276367 12,6 12,4.3457 10.6543,3 9,3 Z M 6,6.5 C 5.723877,6.5 5.5,6.276123 5.5,6 5.5,5.723816 5.723877,5.5 6,5.5 6.276123,5.5 6.5,5.723816 6.5,6 6.5,6.276123 6.276123,6.5 6,6.5 Z"/>
</svg>