<svg viewBox="3 3 54 54" xmlns="http://www.w3.org/2000/svg" width="512" height="512">
    <g>
        <path d="m30 4c-14.3594035 0-26 11.6405965-26 26s11.6405965 26 26 26 26-11.6405965 26-26c-.016532-14.3525501-11.6474499-25.98346796-26-26zm0 50c-13.254834 0-24-10.745166-24-24s10.745166-24 24-24 24 10.745166 24 24c-.0154295 13.2484376-10.7515624 23.9845705-24 24z"/>
        <path d="m30.035 22.921c-.024-.3-.035-.613-.035-.921 0-3.961 1.828-5.615 1.874-5.658 1.2752159-1.0402618 1.4743355-2.9136473.4462764-4.1987212-1.028059-1.2850738-2.8994614-1.5020417-4.1942764-.4862788-.168.135-4.126 3.376-4.126 10.343 0 .463.017.927.053 1.387.2007771 3.1894529 1.4878592 6.2139371 3.647 8.57 1.5076456 1.648307 2.3301671 3.8093928 2.3 6.043 0 3.979-1.844 5.629-1.9 5.682-1.2733475 1.047104-1.4631879 2.9254985-.4251015 4.2062081 1.0380865 1.2807096 2.9150936 1.4838091 4.2031015.4547919.164-.135 4.122-3.376 4.122-10.343.0460644-3.7178134-1.3263929-7.3134514-3.838-10.055-1.2695367-1.3777364-2.0213438-3.1535141-2.127-5.024zm.589 23.86c-.1766279.1425839-.397005.2199278-.624.219-.3041289.000418-.5919196-.137589-.782-.375-.3419663-.4363076-.2688094-1.0666169.164-1.413.269-.231 2.618-2.393 2.618-7.212.0359302-2.7283869-.9701057-5.3677559-2.813-7.38-1.8598328-2.0317059-2.9679522-4.6389627-3.14-7.388-.0313333-.4086667-.047-.8193333-.047-1.232 0-6.011 3.237-8.67 3.376-8.781.1767886-.1422952.39706-.219602.624-.219.0374247-.000468.0748395.0015364.112.006.5472541.0607632.9424247.5524913.884 1.1-.0323438.2781021-.176825.5309443-.4.7-.267.23-2.596 2.386-2.596 7.194 0 .36.013.72.041 1.076.1320828 2.3112575 1.0627724 4.5048997 2.633 6.206 2.1775948 2.3769192 3.3670391 5.4946508 3.326 8.718 0 6.011-3.237 8.67-3.376 8.781z"/>
        <path d="m20.035 22.921c-.024-.3-.035-.613-.035-.921 0-3.961 1.828-5.615 1.874-5.658 1.2752159-1.0402618 1.4743355-2.9136473.4462764-4.1987212-1.028059-1.2850738-2.8994614-1.5020417-4.1942764-.4862788-.168.135-4.126 3.376-4.126 10.343 0 .463.017.927.053 1.387.2007771 3.1894529 1.4878592 6.2139371 3.647 8.57 1.5076456 1.648307 2.3301671 3.8093928 2.3 6.043 0 3.979-1.844 5.629-1.9 5.682-1.2733475 1.047104-1.4631879 2.9254985-.4251015 4.2062081 1.0380865 1.2807096 2.9150936 1.4838091 4.2031015.4547919.164-.135 4.122-3.376 4.122-10.343.0460644-3.7178134-1.3263929-7.3134514-3.838-10.055-1.2695367-1.3777364-2.0213438-3.1535141-2.127-5.024zm.589 23.86c-.1766279.1425839-.397005.2199278-.624.219-.3041289.000418-.5919196-.137589-.782-.375-.3419663-.4363076-.2688094-1.0666169.164-1.413.269-.231 2.618-2.393 2.618-7.212.0359302-2.7283869-.9701057-5.3677559-2.813-7.38-1.8598328-2.0317059-2.9679522-4.6389627-3.14-7.388-.0313333-.4086667-.047-.8193333-.047-1.232 0-6.011 3.237-8.67 3.376-8.781.1767886-.1422952.39706-.219602.624-.219.0374247-.000468.0748395.0015364.112.006.5472541.0607632.9424247.5524913.884 1.1-.0323438.2781021-.176825.5309443-.4.7-.267.23-2.596 2.386-2.596 7.194 0 .36.013.72.041 1.076.1320828 2.3112575 1.0627724 4.5048997 2.633 6.206 2.1775948 2.3769192 3.3670391 5.4946508 3.326 8.718 0 6.011-3.237 8.67-3.376 8.781z"/>
        <path d="m40.035 22.921c-.024-.3-.035-.613-.035-.921 0-3.961 1.828-5.615 1.874-5.658 1.2752159-1.0402618 1.4743355-2.9136473.4462764-4.1987212-1.028059-1.2850738-2.8994614-1.5020417-4.1942764-.4862788-.168.135-4.126 3.376-4.126 10.343 0 .463.017.927.053 1.387.2007771 3.1894529 1.4878592 6.2139371 3.647 8.57 1.5076456 1.648307 2.3301671 3.8093928 2.3 6.043 0 3.979-1.844 5.629-1.9 5.682-1.2733475 1.047104-1.4631879 2.9254985-.4251015 4.2062081 1.0380865 1.2807096 2.9150936 1.4838091 4.2031015.4547919.164-.135 4.122-3.376 4.122-10.343.0460644-3.7178134-1.3263929-7.3134514-3.838-10.055-1.2695367-1.3777364-2.0213438-3.1535141-2.127-5.024zm.589 23.86c-.1766279.1425839-.397005.2199278-.624.219-.3041289.000418-.5919196-.137589-.782-.375-.3419663-.4363076-.2688094-1.0666169.164-1.413.269-.231 2.618-2.393 2.618-7.212.0359302-2.7283869-.9701057-5.3677559-2.813-7.38-1.8598328-2.0317059-2.9679522-4.6389627-3.14-7.388-.0313333-.4086667-.047-.8193333-.047-1.232 0-6.011 3.237-8.67 3.376-8.781.1767886-.1422952.39706-.219602.624-.219.0374247-.000468.0748395.0015364.112.006.5472541.0607632.9424247.5524913.884 1.1-.0323438.2781021-.176825.5309443-.4.7-.267.23-2.596 2.386-2.596 7.194 0 .36.013.72.041 1.076.1320828 2.3112575 1.0627724 4.5048997 2.633 6.206 2.1775948 2.3769192 3.3670391 5.4946508 3.326 8.718 0 6.011-3.237 8.67-3.376 8.781z"/>
    </g>
</svg>