<svg xmlns="http://www.w3.org/2000/svg" viewBox="0 0 59 59" width="512" height="512">
    <path d="M57.5,28h-6l4.2-5.6c0.497-0.663,0.362-1.603-0.3-2.1c-0.664-0.496-1.603-0.362-2.101,0.3L47.75,28h-8.966 c-0.308-1.429-0.941-2.737-1.814-3.849l6.495-6.495l9.158,1.308c0.071,0.01,0.144,0.015,0.214,0.015c0.734,0,1.376-0.54,1.483-1.288 c0.117-0.82-0.453-1.58-1.273-1.697l-6.93-0.99l4.242-4.243c0.586-0.586,0.586-1.536,0-2.121c-0.586-0.586-1.535-0.586-2.121,0 l-4.243,4.243l-0.99-6.93c-0.118-0.82-0.886-1.391-1.697-1.273c-0.82,0.117-1.391,0.877-1.273,1.697l1.308,9.158l-6.54,6.54 c-0.01,0.01-0.013,0.023-0.022,0.033C33.666,21.36,32.381,20.851,31,20.63v-8.38l7.4-5.55c0.662-0.497,0.797-1.438,0.3-2.1 S37.264,3.804,36.6,4.3L31,8.5v-7C31,0.671,30.328,0,29.5,0S28,0.671,28,1.5v7l-5.6-4.2c-0.664-0.496-1.603-0.362-2.101,0.3 c-0.497,0.663-0.362,1.603,0.3,2.1l7.4,5.55v8.38c-1.222,0.195-2.364,0.622-3.385,1.237l-6.252-6.252l1.308-9.158 c0.117-0.82-0.453-1.58-1.273-1.697c-0.814-0.118-1.58,0.453-1.697,1.273l-0.99,6.93l-4.95-4.95c-0.586-0.586-1.535-0.586-2.121,0 c-0.586,0.585-0.586,1.535,0,2.121l4.95,4.95l-6.929,0.99c-0.82,0.117-1.391,0.877-1.273,1.697c0.107,0.748,0.749,1.288,1.483,1.288 c0.07,0,0.143-0.005,0.214-0.015l9.157-1.308l6.071,6.071c-1.02,1.182-1.756,2.614-2.096,4.194H12.25L6.7,20.6 c-0.498-0.663-1.437-0.796-2.101-0.3c-0.662,0.497-0.797,1.438-0.3,2.1L8.5,28h-7C0.672,28,0,28.671,0,29.5S0.672,31,1.5,31h7 l-4.2,5.6c-0.497,0.663-0.362,1.603,0.3,2.1C4.87,38.902,5.186,39,5.499,39c0.456,0,0.906-0.207,1.201-0.6l5.55-7.4h7.804 c0.167,1.586,0.724,3.057,1.575,4.314c-0.062,0.045-0.134,0.07-0.19,0.126l-5.198,5.198l-9.157-1.308 c-0.817-0.119-1.58,0.453-1.697,1.272c-0.117,0.82,0.453,1.58,1.273,1.697l6.929,0.99l-4.95,4.95c-0.586,0.585-0.586,1.536,0,2.121 c0.293,0.293,0.677,0.439,1.061,0.439s0.768-0.146,1.061-0.439l4.95-4.95l0.99,6.93c0.107,0.749,0.749,1.288,1.483,1.288 c0.07,0,0.143-0.005,0.214-0.015c0.82-0.117,1.391-0.877,1.273-1.697l-1.308-9.158l5.197-5.197c0.031-0.031,0.042-0.072,0.07-0.105 c1.244,0.982,2.737,1.654,4.369,1.915v8.38l-7.4,5.55c-0.662,0.497-0.797,1.438-0.3,2.1c0.295,0.393,0.745,0.6,1.201,0.6 c0.313,0,0.629-0.098,0.899-0.3l5.6-4.2v6c0,0.829,0.672,1.5,1.5,1.5s1.5-0.671,1.5-1.5v-6l5.6,4.2c0.271,0.202,0.586,0.3,0.899,0.3 c0.456,0,0.906-0.207,1.201-0.6c0.497-0.663,0.362-1.603-0.3-2.1L31,47.75v-8.38c1.864-0.298,3.545-1.136,4.882-2.353l5.486,5.646 l-1.333,9.332c-0.117,0.82,0.453,1.58,1.273,1.697c0.071,0.01,0.144,0.015,0.214,0.015c0.734,0,1.376-0.54,1.483-1.288l1.005-7.036 l4.212,4.334c0.295,0.303,0.686,0.455,1.076,0.455c0.377,0,0.754-0.141,1.045-0.424c0.595-0.577,0.608-1.527,0.031-2.121 l-4.152-4.273l6.824-0.975c0.82-0.117,1.391-0.877,1.273-1.697c-0.118-0.821-0.884-1.394-1.697-1.273l-8.986,1.283l-5.865-6.036 c0.623-1.102,1.036-2.338,1.174-3.656h8.804l5.55,7.4c0.295,0.393,0.745,0.6,1.201,0.6c0.313,0,0.629-0.098,0.899-0.3 c0.662-0.497,0.797-1.438,0.3-2.1L51.5,31h6c0.828,0,1.5-0.671,1.5-1.5S58.328,28,57.5,28z"/>
</svg>