<svg xmlns="http://www.w3.org/2000/svg" viewBox="0 0 60 60" width="512" height="512">
  <g>
    <path d="M30,8c0.552,0,1-0.448,1-1V1c0-0.552-0.448-1-1-1s-1,0.448-1,1v6C29,7.552,29.448,8,30,8z"/>
    <path d="M30,52c-0.552,0-1,0.448-1,1v6c0,0.552,0.448,1,1,1s1-0.448,1-1v-6C31,52.448,30.552,52,30,52z"/>
    <path d="M59,29h-6c-0.552,0-1,0.448-1,1s0.448,1,1,1h6c0.552,0,1-0.448,1-1S59.552,29,59,29z"/>
    <path d="M8,30c0-0.552-0.448-1-1-1H1c-0.552,0-1,0.448-1,1s0.448,1,1,1h6C7.552,31,8,30.552,8,30z"/>
    <path d="M46.264,14.736c0.256,0,0.512-0.098,0.707-0.293l5.736-5.736c0.391-0.391,0.391-1.023,0-1.414s-1.023-0.391-1.414,0 l-5.736,5.736c-0.391,0.391-0.391,1.023,0,1.414C45.752,14.639,46.008,14.736,46.264,14.736z"/>
    <path d="M13.029,45.557l-5.736,5.736c-0.391,0.391-0.391,1.023,0,1.414C7.488,52.902,7.744,53,8,53s0.512-0.098,0.707-0.293 l5.736-5.736c0.391-0.391,0.391-1.023,0-1.414S13.42,45.166,13.029,45.557z"/>
    <path d="M46.971,45.557c-0.391-0.391-1.023-0.391-1.414,0s-0.391,1.023,0,1.414l5.736,5.736C51.488,52.902,51.744,53,52,53 s0.512-0.098,0.707-0.293c0.391-0.391,0.391-1.023,0-1.414L46.971,45.557z"/>
    <path d="M13.029,14.443c0.195,0.195,0.451,0.293,0.707,0.293s0.512-0.098,0.707-0.293c0.391-0.391,0.391-1.023,0-1.414L8.707,7.293 c-0.391-0.391-1.023-0.391-1.414,0s-0.391,1.023,0,1.414L13.029,14.443z"/>
    <path d="M50.251,21.404c0.162,0.381,0.532,0.61,0.921,0.61c0.13,0,0.263-0.026,0.39-0.08l2.762-1.172 c0.508-0.216,0.746-0.803,0.53-1.311s-0.804-0.746-1.311-0.53l-2.762,1.172C50.272,20.309,50.035,20.896,50.251,21.404z"/>
    <path d="M9.749,38.596c-0.216-0.508-0.803-0.746-1.311-0.53l-2.762,1.172c-0.508,0.216-0.746,0.803-0.53,1.311 c0.162,0.381,0.532,0.61,0.921,0.61c0.13,0,0.263-0.026,0.39-0.08l2.762-1.172C9.728,39.691,9.965,39.104,9.749,38.596z"/>
    <path d="M54.481,38.813L51.7,37.688c-0.511-0.207-1.095,0.041-1.302,0.553c-0.207,0.512,0.041,1.095,0.553,1.302l2.782,1.124 c0.123,0.049,0.25,0.073,0.374,0.073c0.396,0,0.771-0.236,0.928-0.626C55.241,39.603,54.994,39.02,54.481,38.813z"/>
    <path d="M5.519,21.188L8.3,22.312c0.123,0.049,0.25,0.073,0.374,0.073c0.396,0,0.771-0.236,0.928-0.626 c0.207-0.512-0.041-1.095-0.553-1.302l-2.782-1.124c-0.513-0.207-1.095,0.04-1.302,0.553C4.759,20.397,5.006,20.98,5.519,21.188z"/>
    <path d="M39.907,50.781c-0.216-0.508-0.803-0.745-1.311-0.53c-0.508,0.216-0.746,0.803-0.53,1.311l1.172,2.762 c0.162,0.381,0.532,0.61,0.921,0.61c0.13,0,0.263-0.026,0.39-0.08c0.508-0.216,0.746-0.803,0.53-1.311L39.907,50.781z"/>
    <path d="M20.093,9.219c0.162,0.381,0.532,0.61,0.921,0.61c0.13,0,0.263-0.026,0.39-0.08c0.508-0.216,0.746-0.803,0.53-1.311 l-1.172-2.762c-0.215-0.509-0.802-0.747-1.311-0.53c-0.508,0.216-0.746,0.803-0.53,1.311L20.093,9.219z"/>
    <path d="M21.759,50.398c-0.511-0.205-1.095,0.04-1.302,0.553l-1.124,2.782c-0.207,0.512,0.041,1.095,0.553,1.302 c0.123,0.049,0.25,0.073,0.374,0.073c0.396,0,0.771-0.236,0.928-0.626l1.124-2.782C22.519,51.188,22.271,50.605,21.759,50.398z"/>
    <path d="M38.241,9.602c0.123,0.049,0.25,0.073,0.374,0.073c0.396,0,0.771-0.236,0.928-0.626l1.124-2.782 c0.207-0.512-0.041-1.095-0.553-1.302c-0.511-0.207-1.095,0.041-1.302,0.553L37.688,8.3C37.481,8.812,37.729,9.395,38.241,9.602z"/>
    <path d="M30,9C18.42,9,9,18.42,9,30s9.42,21,21,21s21-9.42,21-21S41.58,9,30,9z M30,46c-8.822,0-16-7.178-16-16s7.178-16,16-16 s16,7.178,16,16S38.822,46,30,46z"/>
  </g>
</svg>