<svg xmlns="http://www.w3.org/2000/svg" viewBox="0 0 1000 1000" width="512" height="512">
    <g>
        <path d="M848.9,775.8c-4.9,0-9.8-1.2-14.3-3.8c-14.1-7.9-19.1-25.7-11.1-39.8c33.7-60,51.6-128.2,51.6-197.4c0-188.4-133.4-354-317.2-393.9c-15.8-3.4-25.8-19-22.4-34.8c3.4-15.8,19.1-25.8,34.8-22.4c210.5,45.6,363.3,235.3,363.3,451.1c0,79.2-20.4,157.3-59.1,226C869,770.4,859.1,775.8,848.9,775.8z"/>
        <path d="M846.6,779.8c-12,0-23.3-7.5-27.5-19.4l-43.9-123.6c-1.1-3.2-1.7-6.5-1.7-9.8c0-12,7.5-23.3,19.4-27.5c15.2-5.4,32,2.6,37.3,17.7l43.9,123.6c1.1,3.2,1.7,6.5,1.7,9.8c0,12-7.5,23.3-19.4,27.5C853.2,779.3,849.9,779.8,846.6,779.8z"/>
        <path d="M846.6,779.8c-10.4,0-20.4-5.5-25.8-15.3c-7.7-14.2-2.4-32,11.8-39.6l114.2-61.7c14.2-7.6,31.9-2.4,39.6,11.8c7.7,14.2,2.4,32-11.8,39.6l-114.2,61.7C856.1,778.6,851.3,779.8,846.6,779.8z"/>
        <path d="M472.3,995.8c-80.1,0-160.6-20.6-233-63.1c-68.2-40-125.3-97.2-165-165.4c-8.1-13.9-3.4-31.8,10.5-40c13.9-8.2,31.9-3.4,40,10.5c34.7,59.5,84.6,109.4,144.1,144.4c163,95.7,373.8,64.2,501.1-74.9c10.9-11.9,29.4-12.7,41.3-1.8c11.9,10.9,12.7,29.4,1.8,41.3C723.9,944.4,598.8,995.8,472.3,995.8z"/>
        <path d="M226,802.4c-1.8,0-3.7-0.2-5.5-0.5L91.8,777.3c-14-2.7-23.7-14.9-23.7-28.7c0-1.8,0.2-3.7,0.5-5.5c3-15.9,18.3-26.2,34.2-23.2l128.7,24.6c14,2.7,23.7,14.9,23.7,28.7c0,1.8-0.2,3.7-0.5,5.5C252.1,792.7,239.8,802.4,226,802.4z"/>
        <path d="M92.1,904.1c-0.4,0-0.8,0-1.2,0c-16.1-0.6-28.7-14.3-28-30.4l5.2-126.3c0.6-16.1,14.5-29.2,30.4-28c16.1,0.6,28.7,14.3,28,30.4l-5.2,126.3C120.6,891.8,107.7,904.1,92.1,904.1z"/>
        <path d="M61,696.9c-12.3,0-23.8-7.8-27.8-20.1c-67.5-206.1,15.6-427.9,202-539.3c67.9-40.6,145.5-63.2,224.3-65.3c16.7-1.3,29.6,12.3,30,28.5c0.4,16.1-12.3,29.6-28.5,30c-68.8,1.8-136.6,21.6-195.9,57C102.4,285,29.9,478.6,88.8,658.6c5,15.4-3.3,31.9-18.7,36.9C67.1,696.4,64,696.9,61,696.9z"/>
        <path d="M381.5,231.6c-6.6,0-13.2-2.2-18.6-6.7c-7-5.8-10.6-14.2-10.6-22.6c0-6.5,2.2-13.2,6.7-18.6l83.5-101.1c10.3-12.5,28.7-14.2,41.2-3.9c7,5.8,10.6,14.2,10.6,22.6c0,6.5-2.2,13.2-6.7,18.6L404.1,221C398.3,228,389.9,231.6,381.5,231.6z"/>
        <path d="M465,130.5c-5.5,0-11-1.5-15.9-4.7L344.6,58c-13.5-8.8-17.4-26.9-8.6-40.4C344.7,4,362.8,0.1,376.4,9l104.6,67.8c13.5,8.8,17.4,26.9,8.6,40.4C484,125.8,474.6,130.5,465,130.5z"/>
        <path d="M482.9,462.2l63,149.7h-19.3l-17.7-43.7h-71.2L419.9,612h-18.5l62.3-149.7H482.9z M474,478.5h-0.8l-30.4,75.6h60.8L474,478.5z"/>
        <path d="M473.6,733.1c-108.1,0-196-87.9-196-196c0-108.1,87.9-196,196-196c108.1,0,196,87.9,196,196C669.6,645.2,581.7,733.1,473.6,733.1z M473.6,399.6c-75.8,0-137.5,61.7-137.5,137.5c0,75.8,61.7,137.5,137.5,137.5c75.8,0,137.5-61.7,137.5-137.5C611.1,461.2,549.5,399.6,473.6,399.6z"/>
    </g>
</svg>