<svg xmlns="http://www.w3.org/2000/svg" viewBox="1 1 512.015 512.015" width="512" height="512">
    <g>
        <path d="M195.897,334.217c12.644-6.555,20.896-19.29,21.714-33.509c-9.983-9.051-16.565-21.247-18.651-34.56h-39.936 C161.433,292.943,174.77,317.563,195.897,334.217z"/>
        <path d="M247.865,140.736v-19.264c-27.082,1.837-52.99,11.762-74.368,28.489c1.035,5.258,1.562,10.604,1.573,15.963v7.963 C194.618,154.529,220.429,142.775,247.865,140.736z"/>
        <path d="M264.697,41.28c-2.56-0.101-5.12-0.256-7.689-0.256c-48.906-0.018-96.35,16.672-134.473,47.305 c7.327,2.955,14.198,6.936,20.407,11.822c31.947-23.473,70.38-36.476,110.016-37.221C255.781,55.174,259.737,47.878,264.697,41.28z"/>
        <path d="M215.609,214.738h0.421c8.697-8.5,19.823-14.082,31.835-15.973v-39.744c-26.237,2.368-50.408,15.224-67.035,35.657C188.047,207.059,201.28,214.691,215.609,214.738z"/>
        <path d="M269.26,373.12v19.2c26.001-2.228,50.777-12.035,71.259-28.206c-1.035-5.261-1.562-10.61-1.573-15.973v-7.963C320.167,358.804,295.572,370.43,269.26,373.12z"/>
        <path d="M247.865,103.186V91.401c0.02-3.344,0.24-6.684,0.658-10.002c-33.181,1.516-65.23,12.52-92.343,31.707c4.554,5.6,8.362,11.769,11.328,18.35C191.104,114.667,218.955,104.869,247.865,103.186z"/>
        <path d="M428.034,66.706c3.409,10.981,4.492,22.552,3.182,33.975c38.701,42.864,60.105,98.574,60.059,156.325c-0.028,8.299-0.531,16.59-1.509,24.832c8.201,11.029,13.536,23.923,15.525,37.522C528.431,227.331,498.686,130.056,428.034,66.706z"/>
        <path d="M257.008,297.746c16.496,0.081,31.413-9.793,37.782-25.01c6.369-15.217,2.934-32.773-8.702-44.467c-11.636-11.693-29.175-15.216-44.423-8.922c-15.248,6.294-25.196,21.162-25.197,37.658C216.438,279.44,234.574,297.666,257.008,297.746z"/>
        <path d="M472.78,264.695c0.101-2.569,0.256-5.12,0.256-7.689c0.014-48.905-16.676-96.348-47.305-134.473c-2.955,7.332-6.938,14.207-11.831,20.416c23.483,31.939,36.49,70.371,37.23,110.007C458.888,255.773,466.185,259.729,472.78,264.695z"/>
        <path d="M422.613,247.863c3.344,0.017,6.684,0.234,10.002,0.649c-1.518-33.18-12.523-65.229-31.707-92.343c-5.598,4.57-11.766,8.394-18.35,11.374c16.782,23.586,26.579,51.423,28.27,80.32H422.613z"/>
        <path d="M85.68,416.43c-40.54-43.172-63.055-100.201-62.939-159.424c0.028-8.299,0.531-16.59,1.509-24.832c-8.2-11.034-13.534-23.929-15.525-37.531c-23.668,94.118,8.02,193.52,81.792,256.576c-3.385-9.159-5.128-18.843-5.147-28.608C85.369,420.526,85.525,418.478,85.68,416.43z"/>
        <path d="M169.026,338.962h4.864c-19.362-19.554-31.116-45.371-33.152-72.814h-19.255c1.83,27.346,11.925,53.491,28.946,74.971C156.528,339.703,162.766,338.979,169.026,338.962z"/>
        <path d="M391.481,425.682c-7.326-2.962-14.196-6.945-20.407-11.831c-31.071,22.853-68.323,35.785-106.871,37.102c-2.844,7.853-6.85,15.234-11.886,21.897c1.554,0,3.127,0.137,4.672,0.137C305.901,473.006,353.351,456.316,391.481,425.682z"/>
        <path d="M91.404,247.863H198.96c0.864-5.546,2.518-10.94,4.91-16.018c-27.364-5.613-47.027-29.667-47.086-57.6v-8.274c0.395-23.616-11.978-45.608-32.366-57.531s-45.622-11.923-66.011,0s-32.761,33.916-32.366,57.531l-0.018-0.046v16.558C26.063,218.574,55.312,247.823,91.404,247.863z"/>
        <path d="M91.404,266.149c-3.338-0.02-6.672-0.24-9.984-0.658c1.701,33.844,13.13,66.478,32.914,93.989c5.442-4.726,11.471-8.731,17.938-11.913c-17.284-23.797-27.375-52.055-29.074-81.417H91.404z"/>
        <path d="M100.684,82.798c42.864-38.701,98.574-60.105,156.325-60.059c8.296,0.028,16.584,0.532,24.823,1.509c11.022-8.193,23.9-13.533,37.486-15.543C227.298-14.398,130.054,15.351,66.709,85.98C77.69,82.571,89.261,81.487,100.684,82.798z"/>
        <path d="M422.613,266.149H315.056c-0.866,5.546-2.519,10.94-4.91,16.018c27.368,5.606,47.034,29.664,47.086,57.6v8.283c0.597,35.677,29.689,64.287,65.371,64.287s64.775-28.61,65.371-64.287l0.018,0.037v-16.558C487.953,295.437,458.705,266.189,422.613,266.149z"/>
        <path d="M422.622,431.753c-3.101-0.012-6.199-0.195-9.28-0.549c-42.866,38.706-98.579,60.113-156.334,60.069c-7.314,0-14.629-0.43-22.199-1.161c-11.441,8.391-24.84,13.714-38.921,15.461c91.701,22.621,188.401-7.205,251.429-77.55h-0.009C439.313,430.501,430.991,431.759,422.622,431.753z"/>
        <path d="M250.974,422.61V315.721c-5.632-0.585-11.149-1.989-16.375-4.169c-6.132,26.713-29.882,45.664-57.289,45.714h-8.283c-35.677,0.597-64.287,29.689-64.287,65.371s28.61,64.775,64.287,65.371v-0.018h16.558C221.68,487.956,250.934,458.706,250.974,422.61z"/>
        <path d="M41.282,249.317c-0.101,2.56-0.256,5.111-0.256,7.689C40.96,307.081,58.46,355.594,90.48,394.094c2.718-7.48,6.496-14.531,11.218-20.937c-24.286-32.414-37.837-71.608-38.757-112.101C55.182,258.233,47.884,254.277,41.282,249.317z"/>
        <path d="M392.542,247.863c-1.843-27.081-11.767-52.987-28.489-74.368c-5.258,1.036-10.604,1.562-15.963,1.573h-7.954c19.353,19.552,31.104,45.361,33.143,72.795H392.542z"/>
        <path d="M269.26,410.606v12.05c-0.019,3.298-0.232,6.592-0.64,9.865c32.082-2.042,62.963-12.969,89.189-31.561c-4.554-5.602-8.365-11.77-11.337-18.35C323.737,398.749,297.054,408.424,269.26,410.606z"/>
        <path d="M298.407,299.273h-0.421c-7.925,7.759-17.884,13.117-28.727,15.451v39.982c25.082-3.1,47.99-15.786,63.927-35.401C325.963,306.936,312.731,299.315,298.407,299.273z"/>
        <path d="M266.151,91.401v107.365c5.558,0.872,10.96,2.547,16.037,4.974c5.665-27.313,29.706-46.911,57.6-46.958h8.274c35.501-0.84,63.843-29.86,63.843-65.371c0-35.511-28.342-64.532-63.843-65.371l0.027-0.027h-16.558C295.436,26.052,266.186,55.306,266.151,91.401z"/>
        <path d="M319.308,180.828c-12.358,7.217-19.978,20.432-20.032,34.743v0.448c8.413,8.737,13.924,19.858,15.781,31.845h39.936C352.62,221.621,339.752,197.449,319.308,180.828z"/>
    </g>
</svg>